<?xml version="1.0" encoding="UTF-8" standalone="no"?>
<!DOCTYPE svg PUBLIC "-//W3C//DTD SVG 1.1//EN"
 "http://www.w3.org/Graphics/SVG/1.1/DTD/svg11.dtd">
<!-- Generated by graphviz version 2.38.0 (20140413.2041)
 -->
<!-- Title: %3 Pages: 1 -->
<svg width="1617pt" height="765pt"
 viewBox="0.00 0.00 1617.00 765.00" xmlns="http://www.w3.org/2000/svg" xmlns:xlink="http://www.w3.org/1999/xlink">
<g id="graph0" class="graph" transform="scale(1 1) rotate(0) translate(4 761)">
<title>%3</title>
<polygon fill="white" stroke="none" points="-4,4 -4,-761 1613,-761 1613,4 -4,4"/>
<!-- f8845160&#45;c91f&#45;4feb&#45;abf9&#45;7a884f6fe8d4 -->
<g id="node1" class="node"><title>f8845160&#45;c91f&#45;4feb&#45;abf9&#45;7a884f6fe8d4</title>
<polygon fill="none" stroke="black" points="8.5,-728 8.5,-753 79.5,-753 79.5,-728 8.5,-728"/>
<text text-anchor="start" x="13.5" y="-736.8" font-family="Times,serif" font-size="14.00">aggregates</text>
<polygon fill="none" stroke="black" points="79.5,-728 79.5,-753 333.5,-753 333.5,-728 79.5,-728"/>
<text text-anchor="start" x="84.5" y="-736.8" font-family="Times,serif" font-size="14.00">[]</text>
<polygon fill="none" stroke="black" points="8.5,-463 8.5,-728 79.5,-728 79.5,-463 8.5,-463"/>
<text text-anchor="start" x="13.5" y="-591.8" font-family="Times,serif" font-size="14.00">inventories</text>
<polygon fill="none" stroke="black" points="79.5,-463 79.5,-728 333.5,-728 333.5,-463 79.5,-463"/>
<polygon fill="none" stroke="black" points="84.5,-638 84.5,-723 185.5,-723 185.5,-638 84.5,-638"/>
<text text-anchor="start" x="89.5" y="-676.8" font-family="Times,serif" font-size="14.00">DISK_GB</text>
<polygon fill="none" stroke="black" points="185.5,-638 185.5,-723 328.5,-723 328.5,-638 185.5,-638"/>
<polygon fill="none" stroke="black" points="190.5,-693 190.5,-718 290.5,-718 290.5,-693 190.5,-693"/>
<text text-anchor="start" x="195.5" y="-701.8" font-family="Times,serif" font-size="14.00">allocation_ratio</text>
<polygon fill="none" stroke="black" points="290.5,-693 290.5,-718 323.5,-718 323.5,-693 290.5,-693"/>
<text text-anchor="start" x="295.5" y="-701.8" font-family="Times,serif" font-size="14.00">1.0</text>
<polygon fill="none" stroke="black" points="190.5,-668 190.5,-693 290.5,-693 290.5,-668 190.5,-668"/>
<text text-anchor="start" x="195.5" y="-676.8" font-family="Times,serif" font-size="14.00">reserved</text>
<polygon fill="none" stroke="black" points="290.5,-668 290.5,-693 323.5,-693 323.5,-668 290.5,-668"/>
<text text-anchor="start" x="295.5" y="-676.8" font-family="Times,serif" font-size="14.00">0</text>
<polygon fill="none" stroke="black" points="190.5,-643 190.5,-668 290.5,-668 290.5,-643 190.5,-643"/>
<text text-anchor="start" x="195.5" y="-651.8" font-family="Times,serif" font-size="14.00">total</text>
<polygon fill="none" stroke="black" points="290.5,-643 290.5,-668 323.5,-668 323.5,-643 290.5,-643"/>
<text text-anchor="start" x="295.5" y="-651.8" font-family="Times,serif" font-size="14.00">19</text>
<polygon fill="none" stroke="black" points="84.5,-553 84.5,-638 185.5,-638 185.5,-553 84.5,-553"/>
<text text-anchor="start" x="89.5" y="-591.8" font-family="Times,serif" font-size="14.00">MEMORY_MB</text>
<polygon fill="none" stroke="black" points="185.5,-553 185.5,-638 328.5,-638 328.5,-553 185.5,-553"/>
<polygon fill="none" stroke="black" points="190.5,-608 190.5,-633 285.5,-633 285.5,-608 190.5,-608"/>
<text text-anchor="start" x="195.5" y="-616.8" font-family="Times,serif" font-size="14.00">allocation_ratio</text>
<polygon fill="none" stroke="black" points="285.5,-608 285.5,-633 323.5,-633 323.5,-608 285.5,-608"/>
<text text-anchor="start" x="290.5" y="-616.8" font-family="Times,serif" font-size="14.00">1.5</text>
<polygon fill="none" stroke="black" points="190.5,-583 190.5,-608 285.5,-608 285.5,-583 190.5,-583"/>
<text text-anchor="start" x="195.5" y="-591.8" font-family="Times,serif" font-size="14.00">reserved</text>
<polygon fill="none" stroke="black" points="285.5,-583 285.5,-608 323.5,-608 323.5,-583 285.5,-583"/>
<text text-anchor="start" x="290.5" y="-591.8" font-family="Times,serif" font-size="14.00">512</text>
<polygon fill="none" stroke="black" points="190.5,-558 190.5,-583 285.5,-583 285.5,-558 190.5,-558"/>
<text text-anchor="start" x="195.5" y="-566.8" font-family="Times,serif" font-size="14.00">total</text>
<polygon fill="none" stroke="black" points="285.5,-558 285.5,-583 323.5,-583 323.5,-558 285.5,-558"/>
<text text-anchor="start" x="290.5" y="-566.8" font-family="Times,serif" font-size="14.00">7983</text>
<polygon fill="none" stroke="black" points="84.5,-468 84.5,-553 185.5,-553 185.5,-468 84.5,-468"/>
<text text-anchor="start" x="89.5" y="-506.8" font-family="Times,serif" font-size="14.00">VCPU</text>
<polygon fill="none" stroke="black" points="185.5,-468 185.5,-553 328.5,-553 328.5,-468 185.5,-468"/>
<polygon fill="none" stroke="black" points="190.5,-523 190.5,-548 287.5,-548 287.5,-523 190.5,-523"/>
<text text-anchor="start" x="195.5" y="-531.8" font-family="Times,serif" font-size="14.00">allocation_ratio</text>
<polygon fill="none" stroke="black" points="287.5,-523 287.5,-548 323.5,-548 323.5,-523 287.5,-523"/>
<text text-anchor="start" x="292.5" y="-531.8" font-family="Times,serif" font-size="14.00">16.0</text>
<polygon fill="none" stroke="black" points="190.5,-498 190.5,-523 287.5,-523 287.5,-498 190.5,-498"/>
<text text-anchor="start" x="195.5" y="-506.8" font-family="Times,serif" font-size="14.00">reserved</text>
<polygon fill="none" stroke="black" points="287.5,-498 287.5,-523 323.5,-523 323.5,-498 287.5,-498"/>
<text text-anchor="start" x="292.5" y="-506.8" font-family="Times,serif" font-size="14.00">0</text>
<polygon fill="none" stroke="black" points="190.5,-473 190.5,-498 287.5,-498 287.5,-473 190.5,-473"/>
<text text-anchor="start" x="195.5" y="-481.8" font-family="Times,serif" font-size="14.00">total</text>
<polygon fill="none" stroke="black" points="287.5,-473 287.5,-498 323.5,-498 323.5,-473 287.5,-473"/>
<text text-anchor="start" x="292.5" y="-481.8" font-family="Times,serif" font-size="14.00">2</text>
<polygon fill="none" stroke="black" points="8.5,-438 8.5,-463 79.5,-463 79.5,-438 8.5,-438"/>
<text text-anchor="start" x="13.5" y="-446.8" font-family="Times,serif" font-size="14.00">name</text>
<polygon fill="none" stroke="black" points="79.5,-438 79.5,-463 333.5,-463 333.5,-438 79.5,-438"/>
<text text-anchor="start" x="84.5" y="-446.8" font-family="Times,serif" font-size="14.00">ubuntu</text>
<polygon fill="none" stroke="black" points="8.5,-368 8.5,-438 79.5,-438 79.5,-368 8.5,-368"/>
<text text-anchor="start" x="13.5" y="-399.3" font-family="Times,serif" font-size="14.00">traits</text>
<polygon fill="none" stroke="black" points="79.5,-368 79.5,-438 333.5,-438 333.5,-368 79.5,-368"/>
<text text-anchor="start" x="84.5" y="-421.8" font-family="Times,serif" font-size="14.00">HW_CPU_X86_SSE2</text>
<text text-anchor="start" x="84.5" y="-406.8" font-family="Times,serif" font-size="14.00">HW_CPU_X86_SSE</text>
<text text-anchor="start" x="84.5" y="-391.8" font-family="Times,serif" font-size="14.00">HW_CPU_X86_MMX</text>
<text text-anchor="start" x="84.5" y="-376.8" font-family="Times,serif" font-size="14.00">HW_CPU_X86_SVM</text>
<polygon fill="none" stroke="black" points="8.5,-343 8.5,-368 79.5,-368 79.5,-343 8.5,-343"/>
<text text-anchor="start" x="13.5" y="-351.8" font-family="Times,serif" font-size="14.00">uuid</text>
<polygon fill="none" stroke="black" points="79.5,-343 79.5,-368 333.5,-368 333.5,-343 79.5,-343"/>
<text text-anchor="start" x="84.5" y="-351.8" font-family="Times,serif" font-size="14.00">f8845160&#45;c91f&#45;4feb&#45;abf9&#45;7a884f6fe8d4</text>
</g>
<!-- 3ec7bb97&#45;640e&#45;556e&#45;9086&#45;817dc20987ab -->
<g id="node2" class="node"><title>3ec7bb97&#45;640e&#45;556e&#45;9086&#45;817dc20987ab</title>
<polygon fill="none" stroke="black" points="367.5,-628 367.5,-668 438.5,-668 438.5,-628 367.5,-628"/>
<text text-anchor="start" x="372.5" y="-644.3" font-family="Times,serif" font-size="14.00">aggregates</text>
<polygon fill="none" stroke="black" points="438.5,-628 438.5,-668 679.5,-668 679.5,-628 438.5,-628"/>
<text text-anchor="start" x="443.5" y="-651.8" font-family="Times,serif" font-size="14.00">c7991c5d&#45;5be1&#45;5c66&#45;ba19&#45;57b22258208b</text>
<text text-anchor="start" x="443.5" y="-636.8" font-family="Times,serif" font-size="14.00">f0984ba9&#45;c8ad&#45;518c&#45;8aa9&#45;5890b1898873</text>
<polygon fill="none" stroke="black" points="367.5,-533 367.5,-628 438.5,-628 438.5,-533 367.5,-533"/>
<text text-anchor="start" x="372.5" y="-576.8" font-family="Times,serif" font-size="14.00">inventories</text>
<polygon fill="none" stroke="black" points="438.5,-533 438.5,-628 679.5,-628 679.5,-533 438.5,-533"/>
<polygon fill="none" stroke="black" points="443.5,-538 443.5,-623 525.5,-623 525.5,-538 443.5,-538"/>
<text text-anchor="start" x="448.5" y="-576.8" font-family="Times,serif" font-size="14.00">DISK_GB</text>
<polygon fill="none" stroke="black" points="525.5,-538 525.5,-623 674.5,-623 674.5,-538 525.5,-538"/>
<polygon fill="none" stroke="black" points="530.5,-593 530.5,-618 632.5,-618 632.5,-593 530.5,-593"/>
<text text-anchor="start" x="535.5" y="-601.8" font-family="Times,serif" font-size="14.00">allocation_ratio</text>
<polygon fill="none" stroke="black" points="632.5,-593 632.5,-618 669.5,-618 669.5,-593 632.5,-593"/>
<text text-anchor="start" x="637.5" y="-601.8" font-family="Times,serif" font-size="14.00">1.0</text>
<polygon fill="none" stroke="black" points="530.5,-568 530.5,-593 632.5,-593 632.5,-568 530.5,-568"/>
<text text-anchor="start" x="535.5" y="-576.8" font-family="Times,serif" font-size="14.00">reserved</text>
<polygon fill="none" stroke="black" points="632.5,-568 632.5,-593 669.5,-593 669.5,-568 632.5,-568"/>
<text text-anchor="start" x="637.5" y="-576.8" font-family="Times,serif" font-size="14.00">16</text>
<polygon fill="none" stroke="black" points="530.5,-543 530.5,-568 632.5,-568 632.5,-543 530.5,-543"/>
<text text-anchor="start" x="535.5" y="-551.8" font-family="Times,serif" font-size="14.00">total</text>
<polygon fill="none" stroke="black" points="632.5,-543 632.5,-568 669.5,-568 669.5,-543 632.5,-543"/>
<text text-anchor="start" x="637.5" y="-551.8" font-family="Times,serif" font-size="14.00">256</text>
<polygon fill="none" stroke="black" points="367.5,-508 367.5,-533 438.5,-533 438.5,-508 367.5,-508"/>
<text text-anchor="start" x="372.5" y="-516.8" font-family="Times,serif" font-size="14.00">name</text>
<polygon fill="none" stroke="black" points="438.5,-508 438.5,-533 679.5,-533 679.5,-508 438.5,-508"/>
<text text-anchor="start" x="443.5" y="-516.8" font-family="Times,serif" font-size="14.00">compute0_with_disk</text>
<polygon fill="none" stroke="black" points="367.5,-453 367.5,-508 438.5,-508 438.5,-453 367.5,-453"/>
<text text-anchor="start" x="372.5" y="-476.8" font-family="Times,serif" font-size="14.00">traits</text>
<polygon fill="none" stroke="black" points="438.5,-453 438.5,-508 679.5,-508 679.5,-453 438.5,-453"/>
<text text-anchor="start" x="443.5" y="-491.8" font-family="Times,serif" font-size="14.00">HW_CPU_X86_SSE2</text>
<text text-anchor="start" x="443.5" y="-476.8" font-family="Times,serif" font-size="14.00">HW_CPU_X86_SSE</text>
<text text-anchor="start" x="443.5" y="-461.8" font-family="Times,serif" font-size="14.00">HW_CPU_X86_MMX</text>
<polygon fill="none" stroke="black" points="367.5,-428 367.5,-453 438.5,-453 438.5,-428 367.5,-428"/>
<text text-anchor="start" x="372.5" y="-436.8" font-family="Times,serif" font-size="14.00">uuid</text>
<polygon fill="none" stroke="black" points="438.5,-428 438.5,-453 679.5,-453 679.5,-428 438.5,-428"/>
<text text-anchor="start" x="443.5" y="-436.8" font-family="Times,serif" font-size="14.00">3ec7bb97&#45;640e&#45;556e&#45;9086&#45;817dc20987ab</text>
</g>
<!-- 6e77eec7&#45;8dac&#45;5484&#45;88bc&#45;c5aa77d7e282 -->
<g id="node3" class="node"><title>6e77eec7&#45;8dac&#45;5484&#45;88bc&#45;c5aa77d7e282</title>
<polygon fill="none" stroke="black" points="175.5,-259 175.5,-284 246.5,-284 246.5,-259 175.5,-259"/>
<text text-anchor="start" x="180.5" y="-267.8" font-family="Times,serif" font-size="14.00">aggregates</text>
<polygon fill="none" stroke="black" points="246.5,-259 246.5,-284 506.5,-284 506.5,-259 246.5,-259"/>
<text text-anchor="start" x="251.5" y="-267.8" font-family="Times,serif" font-size="14.00">f0984ba9&#45;c8ad&#45;518c&#45;8aa9&#45;5890b1898873</text>
<polygon fill="none" stroke="black" points="175.5,-79 175.5,-259 246.5,-259 246.5,-79 175.5,-79"/>
<text text-anchor="start" x="180.5" y="-165.3" font-family="Times,serif" font-size="14.00">inventories</text>
<polygon fill="none" stroke="black" points="246.5,-79 246.5,-259 506.5,-259 506.5,-79 246.5,-79"/>
<polygon fill="none" stroke="black" points="251.5,-169 251.5,-254 352.5,-254 352.5,-169 251.5,-169"/>
<text text-anchor="start" x="256.5" y="-207.8" font-family="Times,serif" font-size="14.00">MEMORY_MB</text>
<polygon fill="none" stroke="black" points="352.5,-169 352.5,-254 501.5,-254 501.5,-169 352.5,-169"/>
<polygon fill="none" stroke="black" points="357.5,-224 357.5,-249 452.5,-249 452.5,-224 357.5,-224"/>
<text text-anchor="start" x="362.5" y="-232.8" font-family="Times,serif" font-size="14.00">allocation_ratio</text>
<polygon fill="none" stroke="black" points="452.5,-224 452.5,-249 496.5,-249 496.5,-224 452.5,-224"/>
<text text-anchor="start" x="457.5" y="-232.8" font-family="Times,serif" font-size="14.00">1.0</text>
<polygon fill="none" stroke="black" points="357.5,-199 357.5,-224 452.5,-224 452.5,-199 357.5,-199"/>
<text text-anchor="start" x="362.5" y="-207.8" font-family="Times,serif" font-size="14.00">reserved</text>
<polygon fill="none" stroke="black" points="452.5,-199 452.5,-224 496.5,-224 496.5,-199 452.5,-199"/>
<text text-anchor="start" x="457.5" y="-207.8" font-family="Times,serif" font-size="14.00">1024</text>
<polygon fill="none" stroke="black" points="357.5,-174 357.5,-199 452.5,-199 452.5,-174 357.5,-174"/>
<text text-anchor="start" x="362.5" y="-182.8" font-family="Times,serif" font-size="14.00">total</text>
<polygon fill="none" stroke="black" points="452.5,-174 452.5,-199 496.5,-199 496.5,-174 452.5,-174"/>
<text text-anchor="start" x="457.5" y="-182.8" font-family="Times,serif" font-size="14.00">16384</text>
<polygon fill="none" stroke="black" points="251.5,-84 251.5,-169 352.5,-169 352.5,-84 251.5,-84"/>
<text text-anchor="start" x="256.5" y="-122.8" font-family="Times,serif" font-size="14.00">VCPU</text>
<polygon fill="none" stroke="black" points="352.5,-84 352.5,-169 501.5,-169 501.5,-84 352.5,-84"/>
<polygon fill="none" stroke="black" points="357.5,-139 357.5,-164 457.5,-164 457.5,-139 357.5,-139"/>
<text text-anchor="start" x="362.5" y="-147.8" font-family="Times,serif" font-size="14.00">allocation_ratio</text>
<polygon fill="none" stroke="black" points="457.5,-139 457.5,-164 496.5,-164 496.5,-139 457.5,-139"/>
<text text-anchor="start" x="462.5" y="-147.8" font-family="Times,serif" font-size="14.00">16.0</text>
<polygon fill="none" stroke="black" points="357.5,-114 357.5,-139 457.5,-139 457.5,-114 357.5,-114"/>
<text text-anchor="start" x="362.5" y="-122.8" font-family="Times,serif" font-size="14.00">reserved</text>
<polygon fill="none" stroke="black" points="457.5,-114 457.5,-139 496.5,-139 496.5,-114 457.5,-114"/>
<text text-anchor="start" x="462.5" y="-122.8" font-family="Times,serif" font-size="14.00">1</text>
<polygon fill="none" stroke="black" points="357.5,-89 357.5,-114 457.5,-114 457.5,-89 357.5,-89"/>
<text text-anchor="start" x="362.5" y="-97.8" font-family="Times,serif" font-size="14.00">total</text>
<polygon fill="none" stroke="black" points="457.5,-89 457.5,-114 496.5,-114 496.5,-89 457.5,-89"/>
<text text-anchor="start" x="462.5" y="-97.8" font-family="Times,serif" font-size="14.00">4</text>
<polygon fill="none" stroke="black" points="175.5,-54 175.5,-79 246.5,-79 246.5,-54 175.5,-54"/>
<text text-anchor="start" x="180.5" y="-62.8" font-family="Times,serif" font-size="14.00">name</text>
<polygon fill="none" stroke="black" points="246.5,-54 246.5,-79 506.5,-79 506.5,-54 246.5,-54"/>
<text text-anchor="start" x="251.5" y="-62.8" font-family="Times,serif" font-size="14.00">compute0_with_disk_NUMA0</text>
<polygon fill="none" stroke="black" points="175.5,-29 175.5,-54 246.5,-54 246.5,-29 175.5,-29"/>
<text text-anchor="start" x="180.5" y="-37.8" font-family="Times,serif" font-size="14.00">traits</text>
<polygon fill="none" stroke="black" points="246.5,-29 246.5,-54 506.5,-54 506.5,-29 246.5,-29"/>
<text text-anchor="start" x="251.5" y="-37.8" font-family="Times,serif" font-size="14.00">[]</text>
<polygon fill="none" stroke="black" points="175.5,-4 175.5,-29 246.5,-29 246.5,-4 175.5,-4"/>
<text text-anchor="start" x="180.5" y="-12.8" font-family="Times,serif" font-size="14.00">uuid</text>
<polygon fill="none" stroke="black" points="246.5,-4 246.5,-29 506.5,-29 506.5,-4 246.5,-4"/>
<text text-anchor="start" x="251.5" y="-12.8" font-family="Times,serif" font-size="14.00">6e77eec7&#45;8dac&#45;5484&#45;88bc&#45;c5aa77d7e282</text>
</g>
<!-- 3ec7bb97&#45;640e&#45;556e&#45;9086&#45;817dc20987ab&#45;&gt;6e77eec7&#45;8dac&#45;5484&#45;88bc&#45;c5aa77d7e282 -->
<g id="edge1" class="edge"><title>3ec7bb97&#45;640e&#45;556e&#45;9086&#45;817dc20987ab&#45;&gt;6e77eec7&#45;8dac&#45;5484&#45;88bc&#45;c5aa77d7e282</title>
<path fill="none" stroke="black" d="M463.316,-414.792C444.83,-374.183 424.405,-329.315 405.605,-288.018"/>
<polygon fill="black" stroke="black" points="460.146,-416.277 467.475,-423.929 466.517,-413.377 460.146,-416.277"/>
<text text-anchor="middle" x="433.5" y="-309.8" font-family="Times,serif" font-size="14.00">parent</text>
</g>
<!-- 0f1983fd&#45;f894&#45;5844&#45;bf45&#45;6e5f66d6df4c -->
<g id="node4" class="node"><title>0f1983fd&#45;f894&#45;5844&#45;bf45&#45;6e5f66d6df4c</title>
<polygon fill="none" stroke="black" points="540.5,-259 540.5,-284 611.5,-284 611.5,-259 540.5,-259"/>
<text text-anchor="start" x="545.5" y="-267.8" font-family="Times,serif" font-size="14.00">aggregates</text>
<polygon fill="none" stroke="black" points="611.5,-259 611.5,-284 871.5,-284 871.5,-259 611.5,-259"/>
<text text-anchor="start" x="616.5" y="-267.8" font-family="Times,serif" font-size="14.00">f0984ba9&#45;c8ad&#45;518c&#45;8aa9&#45;5890b1898873</text>
<polygon fill="none" stroke="black" points="540.5,-79 540.5,-259 611.5,-259 611.5,-79 540.5,-79"/>
<text text-anchor="start" x="545.5" y="-165.3" font-family="Times,serif" font-size="14.00">inventories</text>
<polygon fill="none" stroke="black" points="611.5,-79 611.5,-259 871.5,-259 871.5,-79 611.5,-79"/>
<polygon fill="none" stroke="black" points="616.5,-169 616.5,-254 717.5,-254 717.5,-169 616.5,-169"/>
<text text-anchor="start" x="621.5" y="-207.8" font-family="Times,serif" font-size="14.00">MEMORY_MB</text>
<polygon fill="none" stroke="black" points="717.5,-169 717.5,-254 866.5,-254 866.5,-169 717.5,-169"/>
<polygon fill="none" stroke="black" points="722.5,-224 722.5,-249 817.5,-249 817.5,-224 722.5,-224"/>
<text text-anchor="start" x="727.5" y="-232.8" font-family="Times,serif" font-size="14.00">allocation_ratio</text>
<polygon fill="none" stroke="black" points="817.5,-224 817.5,-249 861.5,-249 861.5,-224 817.5,-224"/>
<text text-anchor="start" x="822.5" y="-232.8" font-family="Times,serif" font-size="14.00">1.0</text>
<polygon fill="none" stroke="black" points="722.5,-199 722.5,-224 817.5,-224 817.5,-199 722.5,-199"/>
<text text-anchor="start" x="727.5" y="-207.8" font-family="Times,serif" font-size="14.00">reserved</text>
<polygon fill="none" stroke="black" points="817.5,-199 817.5,-224 861.5,-224 861.5,-199 817.5,-199"/>
<text text-anchor="start" x="822.5" y="-207.8" font-family="Times,serif" font-size="14.00">0</text>
<polygon fill="none" stroke="black" points="722.5,-174 722.5,-199 817.5,-199 817.5,-174 722.5,-174"/>
<text text-anchor="start" x="727.5" y="-182.8" font-family="Times,serif" font-size="14.00">total</text>
<polygon fill="none" stroke="black" points="817.5,-174 817.5,-199 861.5,-199 861.5,-174 817.5,-174"/>
<text text-anchor="start" x="822.5" y="-182.8" font-family="Times,serif" font-size="14.00">16384</text>
<polygon fill="none" stroke="black" points="616.5,-84 616.5,-169 717.5,-169 717.5,-84 616.5,-84"/>
<text text-anchor="start" x="621.5" y="-122.8" font-family="Times,serif" font-size="14.00">VCPU</text>
<polygon fill="none" stroke="black" points="717.5,-84 717.5,-169 866.5,-169 866.5,-84 717.5,-84"/>
<polygon fill="none" stroke="black" points="722.5,-139 722.5,-164 822.5,-164 822.5,-139 722.5,-139"/>
<text text-anchor="start" x="727.5" y="-147.8" font-family="Times,serif" font-size="14.00">allocation_ratio</text>
<polygon fill="none" stroke="black" points="822.5,-139 822.5,-164 861.5,-164 861.5,-139 822.5,-139"/>
<text text-anchor="start" x="827.5" y="-147.8" font-family="Times,serif" font-size="14.00">16.0</text>
<polygon fill="none" stroke="black" points="722.5,-114 722.5,-139 822.5,-139 822.5,-114 722.5,-114"/>
<text text-anchor="start" x="727.5" y="-122.8" font-family="Times,serif" font-size="14.00">reserved</text>
<polygon fill="none" stroke="black" points="822.5,-114 822.5,-139 861.5,-139 861.5,-114 822.5,-114"/>
<text text-anchor="start" x="827.5" y="-122.8" font-family="Times,serif" font-size="14.00">0</text>
<polygon fill="none" stroke="black" points="722.5,-89 722.5,-114 822.5,-114 822.5,-89 722.5,-89"/>
<text text-anchor="start" x="727.5" y="-97.8" font-family="Times,serif" font-size="14.00">total</text>
<polygon fill="none" stroke="black" points="822.5,-89 822.5,-114 861.5,-114 861.5,-89 822.5,-89"/>
<text text-anchor="start" x="827.5" y="-97.8" font-family="Times,serif" font-size="14.00">4</text>
<polygon fill="none" stroke="black" points="540.5,-54 540.5,-79 611.5,-79 611.5,-54 540.5,-54"/>
<text text-anchor="start" x="545.5" y="-62.8" font-family="Times,serif" font-size="14.00">name</text>
<polygon fill="none" stroke="black" points="611.5,-54 611.5,-79 871.5,-79 871.5,-54 611.5,-54"/>
<text text-anchor="start" x="616.5" y="-62.8" font-family="Times,serif" font-size="14.00">compute0_with_disk_NUMA1</text>
<polygon fill="none" stroke="black" points="540.5,-29 540.5,-54 611.5,-54 611.5,-29 540.5,-29"/>
<text text-anchor="start" x="545.5" y="-37.8" font-family="Times,serif" font-size="14.00">traits</text>
<polygon fill="none" stroke="black" points="611.5,-29 611.5,-54 871.5,-54 871.5,-29 611.5,-29"/>
<text text-anchor="start" x="616.5" y="-37.8" font-family="Times,serif" font-size="14.00">[]</text>
<polygon fill="none" stroke="black" points="540.5,-4 540.5,-29 611.5,-29 611.5,-4 540.5,-4"/>
<text text-anchor="start" x="545.5" y="-12.8" font-family="Times,serif" font-size="14.00">uuid</text>
<polygon fill="none" stroke="black" points="611.5,-4 611.5,-29 871.5,-29 871.5,-4 611.5,-4"/>
<text text-anchor="start" x="616.5" y="-12.8" font-family="Times,serif" font-size="14.00">0f1983fd&#45;f894&#45;5844&#45;bf45&#45;6e5f66d6df4c</text>
</g>
<!-- 3ec7bb97&#45;640e&#45;556e&#45;9086&#45;817dc20987ab&#45;&gt;0f1983fd&#45;f894&#45;5844&#45;bf45&#45;6e5f66d6df4c -->
<g id="edge2" class="edge"><title>3ec7bb97&#45;640e&#45;556e&#45;9086&#45;817dc20987ab&#45;&gt;0f1983fd&#45;f894&#45;5844&#45;bf45&#45;6e5f66d6df4c</title>
<path fill="none" stroke="black" d="M583.356,-414.792C601.74,-374.183 622.054,-329.315 640.751,-288.018"/>
<polygon fill="black" stroke="black" points="580.155,-413.375 579.219,-423.929 586.532,-416.262 580.155,-413.375"/>
<text text-anchor="middle" x="648.5" y="-309.8" font-family="Times,serif" font-size="14.00">parent</text>
</g>
<!-- 07f2ec35&#45;fa28&#45;5fe1&#45;b277&#45;303b7dc29979 -->
<g id="node5" class="node"><title>07f2ec35&#45;fa28&#45;5fe1&#45;b277&#45;303b7dc29979</title>
<polygon fill="none" stroke="black" points="1097.5,-613 1097.5,-653 1168.5,-653 1168.5,-613 1097.5,-613"/>
<text text-anchor="start" x="1102.5" y="-629.3" font-family="Times,serif" font-size="14.00">aggregates</text>
<polygon fill="none" stroke="black" points="1168.5,-613 1168.5,-653 1409.5,-653 1409.5,-613 1168.5,-613"/>
<text text-anchor="start" x="1173.5" y="-636.8" font-family="Times,serif" font-size="14.00">c7991c5d&#45;5be1&#45;5c66&#45;ba19&#45;57b22258208b</text>
<text text-anchor="start" x="1173.5" y="-621.8" font-family="Times,serif" font-size="14.00">f0984ba9&#45;c8ad&#45;518c&#45;8aa9&#45;5890b1898873</text>
<polygon fill="none" stroke="black" points="1097.5,-518 1097.5,-613 1168.5,-613 1168.5,-518 1097.5,-518"/>
<text text-anchor="start" x="1102.5" y="-561.8" font-family="Times,serif" font-size="14.00">inventories</text>
<polygon fill="none" stroke="black" points="1168.5,-518 1168.5,-613 1409.5,-613 1409.5,-518 1168.5,-518"/>
<polygon fill="none" stroke="black" points="1173.5,-523 1173.5,-608 1255.5,-608 1255.5,-523 1173.5,-523"/>
<text text-anchor="start" x="1178.5" y="-561.8" font-family="Times,serif" font-size="14.00">DISK_GB</text>
<polygon fill="none" stroke="black" points="1255.5,-523 1255.5,-608 1404.5,-608 1404.5,-523 1255.5,-523"/>
<polygon fill="none" stroke="black" points="1260.5,-578 1260.5,-603 1362.5,-603 1362.5,-578 1260.5,-578"/>
<text text-anchor="start" x="1265.5" y="-586.8" font-family="Times,serif" font-size="14.00">allocation_ratio</text>
<polygon fill="none" stroke="black" points="1362.5,-578 1362.5,-603 1399.5,-603 1399.5,-578 1362.5,-578"/>
<text text-anchor="start" x="1367.5" y="-586.8" font-family="Times,serif" font-size="14.00">1.0</text>
<polygon fill="none" stroke="black" points="1260.5,-553 1260.5,-578 1362.5,-578 1362.5,-553 1260.5,-553"/>
<text text-anchor="start" x="1265.5" y="-561.8" font-family="Times,serif" font-size="14.00">reserved</text>
<polygon fill="none" stroke="black" points="1362.5,-553 1362.5,-578 1399.5,-578 1399.5,-553 1362.5,-553"/>
<text text-anchor="start" x="1367.5" y="-561.8" font-family="Times,serif" font-size="14.00">16</text>
<polygon fill="none" stroke="black" points="1260.5,-528 1260.5,-553 1362.5,-553 1362.5,-528 1260.5,-528"/>
<text text-anchor="start" x="1265.5" y="-536.8" font-family="Times,serif" font-size="14.00">total</text>
<polygon fill="none" stroke="black" points="1362.5,-528 1362.5,-553 1399.5,-553 1399.5,-528 1362.5,-528"/>
<text text-anchor="start" x="1367.5" y="-536.8" font-family="Times,serif" font-size="14.00">128</text>
<polygon fill="none" stroke="black" points="1097.5,-493 1097.5,-518 1168.5,-518 1168.5,-493 1097.5,-493"/>
<text text-anchor="start" x="1102.5" y="-501.8" font-family="Times,serif" font-size="14.00">name</text>
<polygon fill="none" stroke="black" points="1168.5,-493 1168.5,-518 1409.5,-518 1409.5,-493 1168.5,-493"/>
<text text-anchor="start" x="1173.5" y="-501.8" font-family="Times,serif" font-size="14.00">compute1_with_disk</text>
<polygon fill="none" stroke="black" points="1097.5,-468 1097.5,-493 1168.5,-493 1168.5,-468 1097.5,-468"/>
<text text-anchor="start" x="1102.5" y="-476.8" font-family="Times,serif" font-size="14.00">traits</text>
<polygon fill="none" stroke="black" points="1168.5,-468 1168.5,-493 1409.5,-493 1409.5,-468 1168.5,-468"/>
<text text-anchor="start" x="1173.5" y="-476.8" font-family="Times,serif" font-size="14.00">HW_CPU_X86_MMX</text>
<polygon fill="none" stroke="black" points="1097.5,-443 1097.5,-468 1168.5,-468 1168.5,-443 1097.5,-443"/>
<text text-anchor="start" x="1102.5" y="-451.8" font-family="Times,serif" font-size="14.00">uuid</text>
<polygon fill="none" stroke="black" points="1168.5,-443 1168.5,-468 1409.5,-468 1409.5,-443 1168.5,-443"/>
<text text-anchor="start" x="1173.5" y="-451.8" font-family="Times,serif" font-size="14.00">07f2ec35&#45;fa28&#45;5fe1&#45;b277&#45;303b7dc29979</text>
</g>
<!-- b967b04d&#45;9ebf&#45;5c9b&#45;acb7&#45;333b5fbecb9a -->
<g id="node6" class="node"><title>b967b04d&#45;9ebf&#45;5c9b&#45;acb7&#45;333b5fbecb9a</title>
<polygon fill="none" stroke="black" points="905.5,-259 905.5,-284 976.5,-284 976.5,-259 905.5,-259"/>
<text text-anchor="start" x="910.5" y="-267.8" font-family="Times,serif" font-size="14.00">aggregates</text>
<polygon fill="none" stroke="black" points="976.5,-259 976.5,-284 1236.5,-284 1236.5,-259 976.5,-259"/>
<text text-anchor="start" x="981.5" y="-267.8" font-family="Times,serif" font-size="14.00">f0984ba9&#45;c8ad&#45;518c&#45;8aa9&#45;5890b1898873</text>
<polygon fill="none" stroke="black" points="905.5,-79 905.5,-259 976.5,-259 976.5,-79 905.5,-79"/>
<text text-anchor="start" x="910.5" y="-165.3" font-family="Times,serif" font-size="14.00">inventories</text>
<polygon fill="none" stroke="black" points="976.5,-79 976.5,-259 1236.5,-259 1236.5,-79 976.5,-79"/>
<polygon fill="none" stroke="black" points="981.5,-169 981.5,-254 1082.5,-254 1082.5,-169 981.5,-169"/>
<text text-anchor="start" x="986.5" y="-207.8" font-family="Times,serif" font-size="14.00">MEMORY_MB</text>
<polygon fill="none" stroke="black" points="1082.5,-169 1082.5,-254 1231.5,-254 1231.5,-169 1082.5,-169"/>
<polygon fill="none" stroke="black" points="1087.5,-224 1087.5,-249 1182.5,-249 1182.5,-224 1087.5,-224"/>
<text text-anchor="start" x="1092.5" y="-232.8" font-family="Times,serif" font-size="14.00">allocation_ratio</text>
<polygon fill="none" stroke="black" points="1182.5,-224 1182.5,-249 1226.5,-249 1226.5,-224 1182.5,-224"/>
<text text-anchor="start" x="1187.5" y="-232.8" font-family="Times,serif" font-size="14.00">1.0</text>
<polygon fill="none" stroke="black" points="1087.5,-199 1087.5,-224 1182.5,-224 1182.5,-199 1087.5,-199"/>
<text text-anchor="start" x="1092.5" y="-207.8" font-family="Times,serif" font-size="14.00">reserved</text>
<polygon fill="none" stroke="black" points="1182.5,-199 1182.5,-224 1226.5,-224 1226.5,-199 1182.5,-199"/>
<text text-anchor="start" x="1187.5" y="-207.8" font-family="Times,serif" font-size="14.00">1024</text>
<polygon fill="none" stroke="black" points="1087.5,-174 1087.5,-199 1182.5,-199 1182.5,-174 1087.5,-174"/>
<text text-anchor="start" x="1092.5" y="-182.8" font-family="Times,serif" font-size="14.00">total</text>
<polygon fill="none" stroke="black" points="1182.5,-174 1182.5,-199 1226.5,-199 1226.5,-174 1182.5,-174"/>
<text text-anchor="start" x="1187.5" y="-182.8" font-family="Times,serif" font-size="14.00">16384</text>
<polygon fill="none" stroke="black" points="981.5,-84 981.5,-169 1082.5,-169 1082.5,-84 981.5,-84"/>
<text text-anchor="start" x="986.5" y="-122.8" font-family="Times,serif" font-size="14.00">VCPU</text>
<polygon fill="none" stroke="black" points="1082.5,-84 1082.5,-169 1231.5,-169 1231.5,-84 1082.5,-84"/>
<polygon fill="none" stroke="black" points="1087.5,-139 1087.5,-164 1187.5,-164 1187.5,-139 1087.5,-139"/>
<text text-anchor="start" x="1092.5" y="-147.8" font-family="Times,serif" font-size="14.00">allocation_ratio</text>
<polygon fill="none" stroke="black" points="1187.5,-139 1187.5,-164 1226.5,-164 1226.5,-139 1187.5,-139"/>
<text text-anchor="start" x="1192.5" y="-147.8" font-family="Times,serif" font-size="14.00">16.0</text>
<polygon fill="none" stroke="black" points="1087.5,-114 1087.5,-139 1187.5,-139 1187.5,-114 1087.5,-114"/>
<text text-anchor="start" x="1092.5" y="-122.8" font-family="Times,serif" font-size="14.00">reserved</text>
<polygon fill="none" stroke="black" points="1187.5,-114 1187.5,-139 1226.5,-139 1226.5,-114 1187.5,-114"/>
<text text-anchor="start" x="1192.5" y="-122.8" font-family="Times,serif" font-size="14.00">1</text>
<polygon fill="none" stroke="black" points="1087.5,-89 1087.5,-114 1187.5,-114 1187.5,-89 1087.5,-89"/>
<text text-anchor="start" x="1092.5" y="-97.8" font-family="Times,serif" font-size="14.00">total</text>
<polygon fill="none" stroke="black" points="1187.5,-89 1187.5,-114 1226.5,-114 1226.5,-89 1187.5,-89"/>
<text text-anchor="start" x="1192.5" y="-97.8" font-family="Times,serif" font-size="14.00">8</text>
<polygon fill="none" stroke="black" points="905.5,-54 905.5,-79 976.5,-79 976.5,-54 905.5,-54"/>
<text text-anchor="start" x="910.5" y="-62.8" font-family="Times,serif" font-size="14.00">name</text>
<polygon fill="none" stroke="black" points="976.5,-54 976.5,-79 1236.5,-79 1236.5,-54 976.5,-54"/>
<text text-anchor="start" x="981.5" y="-62.8" font-family="Times,serif" font-size="14.00">compute1_with_disk_NUMA0</text>
<polygon fill="none" stroke="black" points="905.5,-29 905.5,-54 976.5,-54 976.5,-29 905.5,-29"/>
<text text-anchor="start" x="910.5" y="-37.8" font-family="Times,serif" font-size="14.00">traits</text>
<polygon fill="none" stroke="black" points="976.5,-29 976.5,-54 1236.5,-54 1236.5,-29 976.5,-29"/>
<text text-anchor="start" x="981.5" y="-37.8" font-family="Times,serif" font-size="14.00">[]</text>
<polygon fill="none" stroke="black" points="905.5,-4 905.5,-29 976.5,-29 976.5,-4 905.5,-4"/>
<text text-anchor="start" x="910.5" y="-12.8" font-family="Times,serif" font-size="14.00">uuid</text>
<polygon fill="none" stroke="black" points="976.5,-4 976.5,-29 1236.5,-29 1236.5,-4 976.5,-4"/>
<text text-anchor="start" x="981.5" y="-12.8" font-family="Times,serif" font-size="14.00">b967b04d&#45;9ebf&#45;5c9b&#45;acb7&#45;333b5fbecb9a</text>
</g>
<!-- 07f2ec35&#45;fa28&#45;5fe1&#45;b277&#45;303b7dc29979&#45;&gt;b967b04d&#45;9ebf&#45;5c9b&#45;acb7&#45;333b5fbecb9a -->
<g id="edge3" class="edge"><title>07f2ec35&#45;fa28&#45;5fe1&#45;b277&#45;303b7dc29979&#45;&gt;b967b04d&#45;9ebf&#45;5c9b&#45;acb7&#45;333b5fbecb9a</title>
<path fill="none" stroke="black" d="M1199.97,-429.416C1179.86,-385.225 1156.76,-334.495 1135.7,-288.228"/>
<polygon fill="black" stroke="black" points="1196.89,-431.091 1204.22,-438.743 1203.26,-428.191 1196.89,-431.091"/>
<text text-anchor="middle" x="1162.5" y="-309.8" font-family="Times,serif" font-size="14.00">parent</text>
</g>
<!-- 6ce41c76&#45;2b87&#45;56eb&#45;91ae&#45;814671b06659 -->
<g id="node7" class="node"><title>6ce41c76&#45;2b87&#45;56eb&#45;91ae&#45;814671b06659</title>
<polygon fill="none" stroke="black" points="1270.5,-259 1270.5,-284 1341.5,-284 1341.5,-259 1270.5,-259"/>
<text text-anchor="start" x="1275.5" y="-267.8" font-family="Times,serif" font-size="14.00">aggregates</text>
<polygon fill="none" stroke="black" points="1341.5,-259 1341.5,-284 1601.5,-284 1601.5,-259 1341.5,-259"/>
<text text-anchor="start" x="1346.5" y="-267.8" font-family="Times,serif" font-size="14.00">f0984ba9&#45;c8ad&#45;518c&#45;8aa9&#45;5890b1898873</text>
<polygon fill="none" stroke="black" points="1270.5,-79 1270.5,-259 1341.5,-259 1341.5,-79 1270.5,-79"/>
<text text-anchor="start" x="1275.5" y="-165.3" font-family="Times,serif" font-size="14.00">inventories</text>
<polygon fill="none" stroke="black" points="1341.5,-79 1341.5,-259 1601.5,-259 1601.5,-79 1341.5,-79"/>
<polygon fill="none" stroke="black" points="1346.5,-169 1346.5,-254 1447.5,-254 1447.5,-169 1346.5,-169"/>
<text text-anchor="start" x="1351.5" y="-207.8" font-family="Times,serif" font-size="14.00">MEMORY_MB</text>
<polygon fill="none" stroke="black" points="1447.5,-169 1447.5,-254 1596.5,-254 1596.5,-169 1447.5,-169"/>
<polygon fill="none" stroke="black" points="1452.5,-224 1452.5,-249 1547.5,-249 1547.5,-224 1452.5,-224"/>
<text text-anchor="start" x="1457.5" y="-232.8" font-family="Times,serif" font-size="14.00">allocation_ratio</text>
<polygon fill="none" stroke="black" points="1547.5,-224 1547.5,-249 1591.5,-249 1591.5,-224 1547.5,-224"/>
<text text-anchor="start" x="1552.5" y="-232.8" font-family="Times,serif" font-size="14.00">1.0</text>
<polygon fill="none" stroke="black" points="1452.5,-199 1452.5,-224 1547.5,-224 1547.5,-199 1452.5,-199"/>
<text text-anchor="start" x="1457.5" y="-207.8" font-family="Times,serif" font-size="14.00">reserved</text>
<polygon fill="none" stroke="black" points="1547.5,-199 1547.5,-224 1591.5,-224 1591.5,-199 1547.5,-199"/>
<text text-anchor="start" x="1552.5" y="-207.8" font-family="Times,serif" font-size="14.00">0</text>
<polygon fill="none" stroke="black" points="1452.5,-174 1452.5,-199 1547.5,-199 1547.5,-174 1452.5,-174"/>
<text text-anchor="start" x="1457.5" y="-182.8" font-family="Times,serif" font-size="14.00">total</text>
<polygon fill="none" stroke="black" points="1547.5,-174 1547.5,-199 1591.5,-199 1591.5,-174 1547.5,-174"/>
<text text-anchor="start" x="1552.5" y="-182.8" font-family="Times,serif" font-size="14.00">16384</text>
<polygon fill="none" stroke="black" points="1346.5,-84 1346.5,-169 1447.5,-169 1447.5,-84 1346.5,-84"/>
<text text-anchor="start" x="1351.5" y="-122.8" font-family="Times,serif" font-size="14.00">VCPU</text>
<polygon fill="none" stroke="black" points="1447.5,-84 1447.5,-169 1596.5,-169 1596.5,-84 1447.5,-84"/>
<polygon fill="none" stroke="black" points="1452.5,-139 1452.5,-164 1552.5,-164 1552.5,-139 1452.5,-139"/>
<text text-anchor="start" x="1457.5" y="-147.8" font-family="Times,serif" font-size="14.00">allocation_ratio</text>
<polygon fill="none" stroke="black" points="1552.5,-139 1552.5,-164 1591.5,-164 1591.5,-139 1552.5,-139"/>
<text text-anchor="start" x="1557.5" y="-147.8" font-family="Times,serif" font-size="14.00">16.0</text>
<polygon fill="none" stroke="black" points="1452.5,-114 1452.5,-139 1552.5,-139 1552.5,-114 1452.5,-114"/>
<text text-anchor="start" x="1457.5" y="-122.8" font-family="Times,serif" font-size="14.00">reserved</text>
<polygon fill="none" stroke="black" points="1552.5,-114 1552.5,-139 1591.5,-139 1591.5,-114 1552.5,-114"/>
<text text-anchor="start" x="1557.5" y="-122.8" font-family="Times,serif" font-size="14.00">0</text>
<polygon fill="none" stroke="black" points="1452.5,-89 1452.5,-114 1552.5,-114 1552.5,-89 1452.5,-89"/>
<text text-anchor="start" x="1457.5" y="-97.8" font-family="Times,serif" font-size="14.00">total</text>
<polygon fill="none" stroke="black" points="1552.5,-89 1552.5,-114 1591.5,-114 1591.5,-89 1552.5,-89"/>
<text text-anchor="start" x="1557.5" y="-97.8" font-family="Times,serif" font-size="14.00">8</text>
<polygon fill="none" stroke="black" points="1270.5,-54 1270.5,-79 1341.5,-79 1341.5,-54 1270.5,-54"/>
<text text-anchor="start" x="1275.5" y="-62.8" font-family="Times,serif" font-size="14.00">name</text>
<polygon fill="none" stroke="black" points="1341.5,-54 1341.5,-79 1601.5,-79 1601.5,-54 1341.5,-54"/>
<text text-anchor="start" x="1346.5" y="-62.8" font-family="Times,serif" font-size="14.00">compute1_with_disk_NUMA1</text>
<polygon fill="none" stroke="black" points="1270.5,-29 1270.5,-54 1341.5,-54 1341.5,-29 1270.5,-29"/>
<text text-anchor="start" x="1275.5" y="-37.8" font-family="Times,serif" font-size="14.00">traits</text>
<polygon fill="none" stroke="black" points="1341.5,-29 1341.5,-54 1601.5,-54 1601.5,-29 1341.5,-29"/>
<text text-anchor="start" x="1346.5" y="-37.8" font-family="Times,serif" font-size="14.00">[]</text>
<polygon fill="none" stroke="black" points="1270.5,-4 1270.5,-29 1341.5,-29 1341.5,-4 1270.5,-4"/>
<text text-anchor="start" x="1275.5" y="-12.8" font-family="Times,serif" font-size="14.00">uuid</text>
<polygon fill="none" stroke="black" points="1341.5,-4 1341.5,-29 1601.5,-29 1601.5,-4 1341.5,-4"/>
<text text-anchor="start" x="1346.5" y="-12.8" font-family="Times,serif" font-size="14.00">6ce41c76&#45;2b87&#45;56eb&#45;91ae&#45;814671b06659</text>
</g>
<!-- 07f2ec35&#45;fa28&#45;5fe1&#45;b277&#45;303b7dc29979&#45;&gt;6ce41c76&#45;2b87&#45;56eb&#45;91ae&#45;814671b06659 -->
<g id="edge4" class="edge"><title>07f2ec35&#45;fa28&#45;5fe1&#45;b277&#45;303b7dc29979&#45;&gt;6ce41c76&#45;2b87&#45;56eb&#45;91ae&#45;814671b06659</title>
<path fill="none" stroke="black" d="M1306.73,-429.416C1326.74,-385.225 1349.71,-334.495 1370.66,-288.228"/>
<polygon fill="black" stroke="black" points="1303.45,-428.189 1302.51,-438.743 1309.82,-431.076 1303.45,-428.189"/>
<text text-anchor="middle" x="1377.5" y="-309.8" font-family="Times,serif" font-size="14.00">parent</text>
</g>
</g>
</svg>
